<mxfile host="Electron" modified="2024-04-06T02:08:48.416Z" agent="Mozilla/5.0 (Windows NT 10.0; Win64; x64) AppleWebKit/537.36 (KHTML, like Gecko) draw.io/24.1.0 Chrome/120.0.6099.109 Electron/28.1.0 Safari/537.36" etag="N1ubKfAYTjEnExvu7u5n" version="24.1.0" type="device">
  <diagram name="Página-1" id="Qb1n5BbiKUjyk07Ub9On">
    <mxGraphModel dx="1420" dy="830" grid="1" gridSize="10" guides="1" tooltips="1" connect="1" arrows="1" fold="1" page="1" pageScale="1" pageWidth="827" pageHeight="1169" background="#CCE5FF" math="0" shadow="0">
      <root>
        <mxCell id="0" />
        <mxCell id="1" parent="0" />
        <mxCell id="dqQK0d48yy7GbnROKeFA-1" value="&lt;font style=&quot;font-size: 16px;&quot; color=&quot;#000000&quot; face=&quot;Comic Sans MS&quot;&gt;&lt;b&gt;5 Hacer un programa para que el usuario ingrese dos números y luego el programa muestre por pantalla los números entre el menor y el mayor de ambos.&lt;br&gt;&lt;br&gt;Ejemplo, si el usuario ingresa 3 y 15, se mostrarán los números entre el 3 y el 15 y si el usuario ingresa 25 y 8, se mostrarán los números entre el 8 y el 25.&lt;/b&gt;&lt;/font&gt;" style="text;whiteSpace=wrap;html=1;fontFamily=Architects Daughter;fontSource=https%3A%2F%2Ffonts.googleapis.com%2Fcss%3Ffamily%3DArchitects%2BDaughter;" vertex="1" parent="1">
          <mxGeometry x="85" width="570" height="170" as="geometry" />
        </mxCell>
        <mxCell id="dqQK0d48yy7GbnROKeFA-60" value="" style="group;aspect=fixed;" vertex="1" connectable="0" parent="1">
          <mxGeometry x="50" y="200" width="560" height="940" as="geometry" />
        </mxCell>
        <mxCell id="dqQK0d48yy7GbnROKeFA-41" value="" style="group;aspect=fixed;" vertex="1" connectable="0" parent="dqQK0d48yy7GbnROKeFA-60">
          <mxGeometry width="560" height="940" as="geometry" />
        </mxCell>
        <mxCell id="dqQK0d48yy7GbnROKeFA-8" value="" style="group;aspect=fixed;" vertex="1" connectable="0" parent="dqQK0d48yy7GbnROKeFA-41">
          <mxGeometry x="300" width="40" height="40" as="geometry" />
        </mxCell>
        <mxCell id="dqQK0d48yy7GbnROKeFA-2" value="" style="strokeWidth=2;html=1;shape=mxgraph.flowchart.start_2;whiteSpace=wrap;rounded=0;labelBackgroundColor=none;strokeColor=#000000;align=center;verticalAlign=middle;fontFamily=Helvetica;fontSize=12;fontColor=default;fillColor=#d5e8d4;" vertex="1" parent="dqQK0d48yy7GbnROKeFA-8">
          <mxGeometry width="40" height="40" as="geometry" />
        </mxCell>
        <mxCell id="dqQK0d48yy7GbnROKeFA-6" value="&lt;font color=&quot;#000000&quot; size=&quot;1&quot; face=&quot;Comic Sans MS&quot;&gt;&lt;b style=&quot;font-size: 17px;&quot;&gt;I&lt;/b&gt;&lt;/font&gt;" style="text;strokeColor=none;align=center;fillColor=none;html=1;verticalAlign=middle;whiteSpace=wrap;rounded=0;fontFamily=Architects Daughter;fontSource=https%3A%2F%2Ffonts.googleapis.com%2Fcss%3Ffamily%3DArchitects%2BDaughter;" vertex="1" parent="dqQK0d48yy7GbnROKeFA-8">
          <mxGeometry x="5" y="5" width="30" height="30" as="geometry" />
        </mxCell>
        <mxCell id="dqQK0d48yy7GbnROKeFA-9" value="" style="group;aspect=fixed;" vertex="1" connectable="0" parent="dqQK0d48yy7GbnROKeFA-41">
          <mxGeometry x="300" y="900" width="40" height="40" as="geometry" />
        </mxCell>
        <mxCell id="dqQK0d48yy7GbnROKeFA-3" value="" style="strokeWidth=2;html=1;shape=mxgraph.flowchart.start_2;whiteSpace=wrap;rounded=0;labelBackgroundColor=none;strokeColor=#000000;align=center;verticalAlign=middle;fontFamily=Helvetica;fontSize=12;fontColor=default;fillColor=#d5e8d4;" vertex="1" parent="dqQK0d48yy7GbnROKeFA-9">
          <mxGeometry width="40" height="40" as="geometry" />
        </mxCell>
        <mxCell id="dqQK0d48yy7GbnROKeFA-7" value="&lt;font color=&quot;#000000&quot; size=&quot;1&quot; face=&quot;Comic Sans MS&quot;&gt;&lt;b style=&quot;font-size: 17px;&quot;&gt;F&lt;/b&gt;&lt;/font&gt;" style="text;strokeColor=none;align=center;fillColor=none;html=1;verticalAlign=middle;whiteSpace=wrap;rounded=0;fontFamily=Architects Daughter;fontSource=https://fonts.googleapis.com/css?family=Architects+Daughter;" vertex="1" parent="dqQK0d48yy7GbnROKeFA-9">
          <mxGeometry x="5" y="5" width="30" height="30" as="geometry" />
        </mxCell>
        <mxCell id="dqQK0d48yy7GbnROKeFA-11" value="" style="group;aspect=fixed;" vertex="1" connectable="0" parent="dqQK0d48yy7GbnROKeFA-41">
          <mxGeometry x="245" y="70" width="150" height="40" as="geometry" />
        </mxCell>
        <mxCell id="dqQK0d48yy7GbnROKeFA-4" value="" style="shape=trapezoid;perimeter=trapezoidPerimeter;whiteSpace=wrap;html=1;fixedSize=1;rounded=0;labelBackgroundColor=none;strokeColor=#121211;strokeWidth=2;align=center;verticalAlign=middle;fontFamily=Helvetica;fontSize=12;fontColor=default;fillColor=#d5e8d4;direction=west;container=0;" vertex="1" parent="dqQK0d48yy7GbnROKeFA-11">
          <mxGeometry width="150" height="40" as="geometry">
            <mxRectangle x="-1020" y="-650" width="50" height="40" as="alternateBounds" />
          </mxGeometry>
        </mxCell>
        <mxCell id="dqQK0d48yy7GbnROKeFA-10" value="&lt;font face=&quot;Comic Sans MS&quot; color=&quot;#000000&quot;&gt;&lt;span style=&quot;font-size: 15px;&quot;&gt;&lt;b&gt;num1, num2&lt;/b&gt;&lt;/span&gt;&lt;/font&gt;" style="text;strokeColor=none;align=center;fillColor=none;html=1;verticalAlign=middle;whiteSpace=wrap;rounded=0;fontFamily=Architects Daughter;fontSource=https://fonts.googleapis.com/css?family=Architects+Daughter;container=0;" vertex="1" parent="dqQK0d48yy7GbnROKeFA-11">
          <mxGeometry x="25" y="5" width="100" height="30" as="geometry" />
        </mxCell>
        <mxCell id="dqQK0d48yy7GbnROKeFA-17" value="" style="group;aspect=fixed;" vertex="1" connectable="0" parent="dqQK0d48yy7GbnROKeFA-41">
          <mxGeometry x="265" y="150" width="110" height="110" as="geometry" />
        </mxCell>
        <mxCell id="dqQK0d48yy7GbnROKeFA-5" value="" style="rhombus;whiteSpace=wrap;html=1;rounded=0;labelBackgroundColor=none;strokeColor=#0F140C;strokeWidth=2;align=center;verticalAlign=middle;fontFamily=Helvetica;fontSize=12;fontColor=default;fillColor=#d5e8d4;" vertex="1" parent="dqQK0d48yy7GbnROKeFA-17">
          <mxGeometry width="110" height="110" as="geometry" />
        </mxCell>
        <mxCell id="dqQK0d48yy7GbnROKeFA-14" value="&lt;b&gt;&lt;font color=&quot;#000000&quot; style=&quot;font-size: 14px;&quot; face=&quot;Comic Sans MS&quot;&gt;num1&lt;/font&gt;&lt;/b&gt;&lt;div&gt;&lt;b&gt;&lt;font color=&quot;#000000&quot; style=&quot;font-size: 14px;&quot; face=&quot;Comic Sans MS&quot;&gt;&amp;gt;&lt;/font&gt;&lt;/b&gt;&lt;/div&gt;&lt;div&gt;&lt;b&gt;&lt;font color=&quot;#000000&quot; style=&quot;font-size: 14px;&quot; face=&quot;Comic Sans MS&quot;&gt;num2&lt;/font&gt;&lt;/b&gt;&lt;/div&gt;" style="text;strokeColor=none;align=center;fillColor=none;html=1;verticalAlign=middle;whiteSpace=wrap;rounded=0;fontFamily=Architects Daughter;fontSource=https%3A%2F%2Ffonts.googleapis.com%2Fcss%3Ffamily%3DArchitects%2BDaughter;" vertex="1" parent="dqQK0d48yy7GbnROKeFA-17">
          <mxGeometry x="25" y="27.5" width="60" height="55" as="geometry" />
        </mxCell>
        <mxCell id="dqQK0d48yy7GbnROKeFA-19" value="" style="group;aspect=fixed;" vertex="1" connectable="0" parent="dqQK0d48yy7GbnROKeFA-41">
          <mxGeometry x="145" y="260" width="120" height="60" as="geometry" />
        </mxCell>
        <mxCell id="dqQK0d48yy7GbnROKeFA-12" value="" style="rounded=0;whiteSpace=wrap;html=1;labelBackgroundColor=none;strokeColor=#0f100e;strokeWidth=2;align=center;verticalAlign=middle;fontFamily=Helvetica;fontSize=12;fontColor=default;fillColor=#d5e8d4;" vertex="1" parent="dqQK0d48yy7GbnROKeFA-19">
          <mxGeometry width="120" height="60" as="geometry" />
        </mxCell>
        <mxCell id="dqQK0d48yy7GbnROKeFA-16" value="&lt;b style=&quot;font-size: 14px;&quot;&gt;&lt;font color=&quot;#000000&quot; style=&quot;font-size: 14px;&quot; face=&quot;Comic Sans MS&quot;&gt;max = &lt;/font&gt;&lt;font color=&quot;#000000&quot; style=&quot;font-size: 14px;&quot; face=&quot;Comic Sans MS&quot;&gt;num1&lt;/font&gt;&lt;/b&gt;&lt;div&gt;&lt;b style=&quot;font-size: 14px;&quot;&gt;&lt;font color=&quot;#000000&quot; style=&quot;font-size: 14px;&quot; face=&quot;Comic Sans MS&quot;&gt;min = num2&lt;/font&gt;&lt;/b&gt;&lt;/div&gt;" style="text;strokeColor=none;align=center;fillColor=none;html=1;verticalAlign=middle;whiteSpace=wrap;rounded=0;fontFamily=Architects Daughter;fontSource=https://fonts.googleapis.com/css?family=Architects+Daughter;" vertex="1" parent="dqQK0d48yy7GbnROKeFA-19">
          <mxGeometry x="5" y="5" width="110" height="50" as="geometry" />
        </mxCell>
        <mxCell id="dqQK0d48yy7GbnROKeFA-20" value="" style="group;aspect=fixed;" vertex="1" connectable="0" parent="dqQK0d48yy7GbnROKeFA-41">
          <mxGeometry x="375" y="260" width="120" height="60" as="geometry" />
        </mxCell>
        <mxCell id="dqQK0d48yy7GbnROKeFA-13" value="" style="rounded=0;whiteSpace=wrap;html=1;labelBackgroundColor=none;strokeColor=#0f100e;strokeWidth=2;align=center;verticalAlign=middle;fontFamily=Helvetica;fontSize=12;fontColor=default;fillColor=#d5e8d4;" vertex="1" parent="dqQK0d48yy7GbnROKeFA-20">
          <mxGeometry width="120" height="60" as="geometry" />
        </mxCell>
        <mxCell id="dqQK0d48yy7GbnROKeFA-18" value="&lt;b style=&quot;font-size: 14px;&quot;&gt;&lt;font color=&quot;#000000&quot; style=&quot;font-size: 14px;&quot; face=&quot;Comic Sans MS&quot;&gt;max = &lt;/font&gt;&lt;font color=&quot;#000000&quot; style=&quot;font-size: 14px;&quot; face=&quot;Comic Sans MS&quot;&gt;num2&lt;/font&gt;&lt;/b&gt;&lt;div&gt;&lt;b style=&quot;font-size: 14px;&quot;&gt;&lt;font color=&quot;#000000&quot; style=&quot;font-size: 14px;&quot; face=&quot;Comic Sans MS&quot;&gt;min = num1&lt;/font&gt;&lt;/b&gt;&lt;/div&gt;" style="text;strokeColor=none;align=center;fillColor=none;html=1;verticalAlign=middle;whiteSpace=wrap;rounded=0;fontFamily=Architects Daughter;fontSource=https://fonts.googleapis.com/css?family=Architects+Daughter;" vertex="1" parent="dqQK0d48yy7GbnROKeFA-20">
          <mxGeometry x="5" y="5" width="110" height="50" as="geometry" />
        </mxCell>
        <mxCell id="dqQK0d48yy7GbnROKeFA-26" value="" style="group;aspect=fixed;" vertex="1" connectable="0" parent="dqQK0d48yy7GbnROKeFA-41">
          <mxGeometry y="410" width="560" height="448" as="geometry" />
        </mxCell>
        <mxCell id="dqQK0d48yy7GbnROKeFA-27" value="" style="whiteSpace=wrap;html=1;aspect=fixed;rounded=0;labelBackgroundColor=none;strokeColor=#000000;strokeWidth=2;align=center;verticalAlign=middle;fontFamily=Helvetica;fontSize=12;fontColor=default;fillColor=#d5e8d4;" vertex="1" parent="dqQK0d48yy7GbnROKeFA-26">
          <mxGeometry x="112.00000000000003" width="448.0000000000001" height="448.0000000000001" as="geometry" />
        </mxCell>
        <mxCell id="dqQK0d48yy7GbnROKeFA-28" value="" style="group;aspect=fixed;" vertex="1" connectable="0" parent="dqQK0d48yy7GbnROKeFA-26">
          <mxGeometry x="11.200000000000005" y="33.600000000000016" width="201.60000000000005" height="201.60000000000005" as="geometry" />
        </mxCell>
        <mxCell id="dqQK0d48yy7GbnROKeFA-29" value="" style="ellipse;whiteSpace=wrap;html=1;aspect=fixed;rounded=0;labelBackgroundColor=none;strokeColor=#0F140C;strokeWidth=3;align=center;verticalAlign=middle;fontFamily=Helvetica;fontSize=12;fontColor=default;fillColor=#d5e8d4;" vertex="1" parent="dqQK0d48yy7GbnROKeFA-28">
          <mxGeometry width="201.60000000000005" height="201.60000000000005" as="geometry" />
        </mxCell>
        <mxCell id="dqQK0d48yy7GbnROKeFA-30" value="" style="endArrow=none;html=1;rounded=0;strokeColor=#0F140C;fontFamily=Helvetica;fontSize=12;fontColor=default;fillColor=#B2C9AB;strokeWidth=2;" edge="1" parent="dqQK0d48yy7GbnROKeFA-28">
          <mxGeometry width="50" height="50" relative="1" as="geometry">
            <mxPoint x="193.53600000000006" y="56.448000000000015" as="sourcePoint" />
            <mxPoint x="8.064000000000002" y="56.448000000000015" as="targetPoint" />
          </mxGeometry>
        </mxCell>
        <mxCell id="dqQK0d48yy7GbnROKeFA-31" value="" style="endArrow=none;html=1;rounded=0;strokeColor=#0F140C;fontFamily=Helvetica;fontSize=12;fontColor=default;fillColor=#B2C9AB;exitX=0.264;exitY=0.952;exitDx=0;exitDy=0;exitPerimeter=0;strokeWidth=2;" edge="1" parent="dqQK0d48yy7GbnROKeFA-28" source="dqQK0d48yy7GbnROKeFA-29">
          <mxGeometry width="50" height="50" relative="1" as="geometry">
            <mxPoint x="48.384000000000015" y="120.96000000000004" as="sourcePoint" />
            <mxPoint x="56.448000000000015" y="56.448000000000015" as="targetPoint" />
          </mxGeometry>
        </mxCell>
        <mxCell id="dqQK0d48yy7GbnROKeFA-32" value="" style="endArrow=none;html=1;rounded=0;strokeColor=#0F140C;fontFamily=Helvetica;fontSize=12;fontColor=default;fillColor=#B2C9AB;exitX=0.728;exitY=0.948;exitDx=0;exitDy=0;exitPerimeter=0;strokeWidth=2;" edge="1" parent="dqQK0d48yy7GbnROKeFA-28" source="dqQK0d48yy7GbnROKeFA-29">
          <mxGeometry width="50" height="50" relative="1" as="geometry">
            <mxPoint x="120.96000000000004" y="137.08800000000005" as="sourcePoint" />
            <mxPoint x="146.76480000000004" y="56.448000000000015" as="targetPoint" />
          </mxGeometry>
        </mxCell>
        <mxCell id="dqQK0d48yy7GbnROKeFA-33" value="&lt;b&gt;&lt;font color=&quot;#000000&quot; style=&quot;font-size: 12px;&quot; face=&quot;Comic Sans MS&quot;&gt;x = min&lt;/font&gt;&lt;/b&gt;" style="text;strokeColor=none;align=center;fillColor=none;html=1;verticalAlign=middle;whiteSpace=wrap;rounded=0;fontFamily=Architects Daughter;fontSource=https://fonts.googleapis.com/css?family=Architects+Daughter;" vertex="1" parent="dqQK0d48yy7GbnROKeFA-28">
          <mxGeometry y="96.39999999999998" width="50" height="20" as="geometry" />
        </mxCell>
        <mxCell id="dqQK0d48yy7GbnROKeFA-34" value="&lt;b&gt;&lt;font color=&quot;#000000&quot; style=&quot;font-size: 13px;&quot; face=&quot;Comic Sans MS&quot;&gt;x &amp;lt;= max&lt;/font&gt;&lt;/b&gt;" style="text;strokeColor=none;align=center;fillColor=none;html=1;verticalAlign=middle;whiteSpace=wrap;rounded=0;fontFamily=Architects Daughter;fontSource=https://fonts.googleapis.com/css?family=Architects+Daughter;" vertex="1" parent="dqQK0d48yy7GbnROKeFA-28">
          <mxGeometry x="65.8" y="97.39999999999998" width="70" height="20" as="geometry" />
        </mxCell>
        <mxCell id="dqQK0d48yy7GbnROKeFA-59" value="&lt;b&gt;&lt;font color=&quot;#000000&quot; style=&quot;font-size: 18px;&quot; face=&quot;Comic Sans MS&quot;&gt;x&lt;/font&gt;&lt;/b&gt;" style="text;strokeColor=none;align=center;fillColor=none;html=1;verticalAlign=middle;whiteSpace=wrap;rounded=0;fontFamily=Architects Daughter;fontSource=https%3A%2F%2Ffonts.googleapis.com%2Fcss%3Ffamily%3DArchitects%2BDaughter;" vertex="1" parent="dqQK0d48yy7GbnROKeFA-28">
          <mxGeometry x="70.8" y="16.399999999999977" width="60" height="30" as="geometry" />
        </mxCell>
        <mxCell id="dqQK0d48yy7GbnROKeFA-37" value="" style="group;aspect=fixed;" vertex="1" connectable="0" parent="dqQK0d48yy7GbnROKeFA-26">
          <mxGeometry x="294" y="120" width="140" height="46.67" as="geometry" />
        </mxCell>
        <mxCell id="dqQK0d48yy7GbnROKeFA-38" value="" style="shape=trapezoid;perimeter=trapezoidPerimeter;whiteSpace=wrap;html=1;fixedSize=1;rounded=0;labelBackgroundColor=none;strokeColor=#0F140C;strokeWidth=2;align=center;verticalAlign=middle;fontFamily=Helvetica;fontSize=12;fontColor=default;fillColor=#d5e8d4;" vertex="1" parent="dqQK0d48yy7GbnROKeFA-37">
          <mxGeometry width="140" height="46.67" as="geometry" />
        </mxCell>
        <mxCell id="dqQK0d48yy7GbnROKeFA-39" value="&lt;b&gt;&lt;font color=&quot;#000000&quot; style=&quot;font-size: 19px;&quot; face=&quot;Comic Sans MS&quot;&gt;x&lt;/font&gt;&lt;/b&gt;" style="text;strokeColor=none;align=center;fillColor=none;html=1;verticalAlign=middle;whiteSpace=wrap;rounded=0;fontFamily=Architects Daughter;fontSource=https://fonts.googleapis.com/css?family=Architects+Daughter;" vertex="1" parent="dqQK0d48yy7GbnROKeFA-37">
          <mxGeometry x="35" y="5.83375" width="70" height="35.0025" as="geometry" />
        </mxCell>
        <mxCell id="dqQK0d48yy7GbnROKeFA-36" value="&lt;b&gt;&lt;font color=&quot;#000000&quot; style=&quot;font-size: 13px;&quot; face=&quot;Comic Sans MS&quot;&gt;x++&lt;/font&gt;&lt;/b&gt;" style="text;strokeColor=none;align=center;fillColor=none;html=1;verticalAlign=middle;whiteSpace=wrap;rounded=0;fontFamily=Architects Daughter;fontSource=https://fonts.googleapis.com/css?family=Architects+Daughter;" vertex="1" parent="dqQK0d48yy7GbnROKeFA-41">
          <mxGeometry x="160" y="542" width="40" height="20" as="geometry" />
        </mxCell>
        <mxCell id="dqQK0d48yy7GbnROKeFA-42" value="" style="line;strokeWidth=2;direction=south;html=1;hachureGap=4;fontFamily=Architects Daughter;fontSource=https://fonts.googleapis.com/css?family=Architects+Daughter;strokeColor=#000000;" vertex="1" parent="dqQK0d48yy7GbnROKeFA-41">
          <mxGeometry x="315" y="40" width="10" height="30" as="geometry" />
        </mxCell>
        <mxCell id="dqQK0d48yy7GbnROKeFA-48" value="" style="line;strokeWidth=2;direction=south;html=1;hachureGap=4;fontFamily=Architects Daughter;fontSource=https://fonts.googleapis.com/css?family=Architects+Daughter;strokeColor=#000000;" vertex="1" parent="dqQK0d48yy7GbnROKeFA-41">
          <mxGeometry x="315" y="110" width="10" height="40" as="geometry" />
        </mxCell>
        <mxCell id="dqQK0d48yy7GbnROKeFA-57" value="" style="line;strokeWidth=2;html=1;perimeter=backbonePerimeter;points=[];outlineConnect=0;hachureGap=4;fontFamily=Architects Daughter;fontSource=https://fonts.googleapis.com/css?family=Architects+Daughter;strokeColor=#000000;" vertex="1" parent="dqQK0d48yy7GbnROKeFA-41">
          <mxGeometry x="200" y="200" width="65" height="10" as="geometry" />
        </mxCell>
        <mxCell id="dqQK0d48yy7GbnROKeFA-56" value="" style="line;strokeWidth=2;html=1;perimeter=backbonePerimeter;points=[];outlineConnect=0;hachureGap=4;fontFamily=Architects Daughter;fontSource=https://fonts.googleapis.com/css?family=Architects+Daughter;strokeColor=#000000;" vertex="1" parent="dqQK0d48yy7GbnROKeFA-41">
          <mxGeometry x="375" y="200" width="65" height="10" as="geometry" />
        </mxCell>
        <mxCell id="dqQK0d48yy7GbnROKeFA-43" value="" style="line;strokeWidth=2;direction=south;html=1;hachureGap=4;fontFamily=Architects Daughter;fontSource=https://fonts.googleapis.com/css?family=Architects+Daughter;strokeColor=#000000;" vertex="1" parent="dqQK0d48yy7GbnROKeFA-41">
          <mxGeometry x="430" y="320" width="10" height="40" as="geometry" />
        </mxCell>
        <mxCell id="dqQK0d48yy7GbnROKeFA-49" value="" style="line;strokeWidth=2;direction=south;html=1;hachureGap=4;fontFamily=Architects Daughter;fontSource=https://fonts.googleapis.com/css?family=Architects+Daughter;strokeColor=#000000;" vertex="1" parent="dqQK0d48yy7GbnROKeFA-41">
          <mxGeometry x="315" y="360" width="10" height="50" as="geometry" />
        </mxCell>
        <mxCell id="dqQK0d48yy7GbnROKeFA-50" value="" style="line;strokeWidth=2;direction=south;html=1;hachureGap=4;fontFamily=Architects Daughter;fontSource=https://fonts.googleapis.com/css?family=Architects+Daughter;strokeColor=#000000;" vertex="1" parent="dqQK0d48yy7GbnROKeFA-41">
          <mxGeometry x="315" y="858" width="10" height="42" as="geometry" />
        </mxCell>
        <mxCell id="dqQK0d48yy7GbnROKeFA-44" value="" style="line;strokeWidth=2;direction=south;html=1;hachureGap=4;fontFamily=Architects Daughter;fontSource=https://fonts.googleapis.com/css?family=Architects+Daughter;strokeColor=#000000;" vertex="1" parent="dqQK0d48yy7GbnROKeFA-60">
          <mxGeometry x="197" y="205" width="10" height="55" as="geometry" />
        </mxCell>
        <mxCell id="dqQK0d48yy7GbnROKeFA-46" value="" style="line;strokeWidth=2;direction=south;html=1;hachureGap=4;fontFamily=Architects Daughter;fontSource=https://fonts.googleapis.com/css?family=Architects+Daughter;strokeColor=#000000;" vertex="1" parent="dqQK0d48yy7GbnROKeFA-60">
          <mxGeometry x="194" y="320" width="10" height="40" as="geometry" />
        </mxCell>
        <mxCell id="dqQK0d48yy7GbnROKeFA-47" value="" style="line;strokeWidth=2;direction=south;html=1;hachureGap=4;fontFamily=Architects Daughter;fontSource=https://fonts.googleapis.com/css?family=Architects+Daughter;strokeColor=#000000;" vertex="1" parent="dqQK0d48yy7GbnROKeFA-60">
          <mxGeometry x="432" y="203" width="10" height="57" as="geometry" />
        </mxCell>
        <mxCell id="dqQK0d48yy7GbnROKeFA-55" value="" style="line;strokeWidth=2;html=1;perimeter=backbonePerimeter;points=[];outlineConnect=0;hachureGap=4;fontFamily=Architects Daughter;fontSource=https://fonts.googleapis.com/css?family=Architects+Daughter;strokeColor=#000000;" vertex="1" parent="dqQK0d48yy7GbnROKeFA-60">
          <mxGeometry x="199" y="355" width="241" height="10" as="geometry" />
        </mxCell>
      </root>
    </mxGraphModel>
  </diagram>
</mxfile>
